<?xml version="1.0" standalone="no"?>
<!DOCTYPE svg PUBLIC "-//W3C//DTD SVG 20010904//EN"
 "http://www.w3.org/TR/2001/REC-SVG-20010904/DTD/svg10.dtd">
<svg version="1.0" xmlns="http://www.w3.org/2000/svg"
 width="288.000000pt" height="285.000000pt" viewBox="0 0 288.000000 285.000000"
 preserveAspectRatio="xMidYMid meet">

<g transform="translate(0.000000,285.000000) scale(0.100000,-0.100000)"
fill="#000000" stroke="none">
<path d="M0 2783 l1 -68 19 36 c10 20 35 50 55 67 l36 32 -56 0 -55 0 0 -67z"/>
<path d="M2794 2828 c16 -12 42 -42 57 -67 l29 -45 0 67 0 67 -57 0 -58 -1 29
-21z"/>
<path d="M1118 1752 c-15 -2 -45 -21 -67 -43 -37 -35 -41 -44 -41 -88 0 -34
10 -71 31 -118 40 -87 42 -133 9 -166 -33 -32 -74 -42 -94 -21 -20 19 -20 24
0 73 22 55 14 71 -18 36 -28 -30 -43 -83 -33 -115 9 -28 70 -42 120 -29 46 13
71 32 91 71 20 38 17 65 -11 127 -62 132 -48 207 41 238 59 20 70 -8 28 -70
-14 -21 -23 -42 -19 -45 10 -10 85 77 85 98 0 36 -55 60 -122 52z"/>
<path d="M1573 1738 c-22 -28 -60 -106 -78 -160 -14 -42 -24 -58 -37 -58 -25
0 -23 14 18 96 21 40 34 79 31 88 -10 26 -46 19 -58 -11 -13 -37 -47 -112 -64
-143 -11 -20 -23 -26 -59 -28 -25 -2 -46 -1 -46 1 0 2 18 45 40 96 33 76 38
96 28 108 -11 13 -14 12 -29 -5 -9 -12 -33 -64 -54 -116 -24 -60 -43 -96 -53
-96 -10 0 -12 -7 -8 -25 3 -13 -1 -41 -9 -62 -23 -57 -24 -116 -3 -121 14 -3
23 14 44 87 29 94 35 101 96 101 l26 0 -14 -45 c-7 -25 -17 -51 -21 -58 -21
-34 -41 -112 -31 -124 17 -21 28 -15 44 25 8 20 22 51 30 69 8 17 14 37 14 45
0 7 6 22 14 33 7 11 16 32 20 48 5 22 12 27 35 27 28 0 28 -1 24 -44 -4 -36
-1 -47 18 -65 37 -35 69 -27 109 27 19 25 45 62 57 82 55 86 -6 -102 -83 -257
-35 -71 -58 -93 -77 -74 -13 13 9 83 35 116 36 47 16 49 -26 3 -54 -59 -64
-92 -38 -127 15 -20 28 -26 58 -26 36 0 40 3 74 60 42 71 59 110 139 313 52
130 59 156 48 172 -6 11 -17 20 -23 20 -11 0 -124 -159 -124 -174 0 -11 -102
-126 -111 -126 -27 0 31 213 73 270 16 23 18 32 9 49 -13 24 -24 26 -38 9z"/>
<path d="M1888 1714 c-20 -19 -46 -56 -59 -82 -13 -26 -27 -49 -30 -52 -13
-12 -49 -130 -49 -161 1 -37 29 -79 53 -79 26 0 47 11 47 25 0 7 3 15 8 17 4
2 22 26 41 53 l33 50 -6 -81 c-4 -63 -2 -85 10 -102 20 -29 70 -30 79 -2 7 21
20 26 30 10 9 -15 33 -1 39 25 10 39 158 254 208 302 37 36 47 22 21 -30 -105
-210 -127 -267 -120 -313 12 -73 54 -102 108 -74 32 17 22 28 -21 23 -30 -4
-41 -2 -46 10 -5 15 16 88 35 124 6 10 20 41 31 68 12 28 32 72 46 98 28 56
34 144 10 153 -30 12 -94 -42 -152 -128 -33 -49 -54 -73 -54 -62 0 4 12 41 26
82 28 81 26 125 -6 142 -27 15 -84 -15 -106 -55 -11 -22 -23 -31 -34 -28 -15
4 -73 -71 -145 -185 -5 -9 -25 -32 -42 -52 l-33 -35 0 46 c0 26 7 66 15 90 25
69 83 162 118 187 32 23 32 23 46 2 16 -23 41 -27 41 -6 0 20 -53 56 -82 56
-15 0 -39 -14 -60 -36z m267 -46 c-4 -24 -13 -54 -21 -68 -15 -28 -28 -62 -70
-170 -27 -69 -63 -120 -87 -120 -16 0 2 149 25 215 23 63 38 82 50 62 4 -7 15
6 26 33 21 47 56 90 73 90 7 0 8 -15 4 -42z"/>
<path d="M419 1717 c-39 -26 -59 -60 -59 -99 0 -40 15 -34 34 13 20 51 50 83
70 76 18 -7 9 -44 -30 -133 -14 -32 -32 -76 -40 -98 -52 -141 -54 -149 -43
-162 15 -18 36 -7 47 25 6 16 23 48 38 72 16 24 33 51 39 60 23 37 124 165
144 183 20 18 21 18 21 1 0 -9 -8 -34 -19 -54 -122 -239 -138 -301 -96 -365
19 -28 71 -36 93 -14 21 21 13 26 -27 21 -24 -3 -41 -1 -46 7 -9 15 26 113 76
213 10 21 19 44 19 51 0 7 6 19 14 25 19 16 40 95 32 126 -4 14 -13 28 -21 31
-23 9 -88 -45 -145 -122 -30 -40 -56 -72 -58 -70 -1 2 6 28 17 57 31 85 36
125 17 154 -20 31 -34 31 -77 2z"/>
<path d="M885 1717 c-11 -7 -36 -17 -55 -22 -38 -11 -39 -30 -2 -30 27 1 27
-7 3 -59 -48 -103 -73 -166 -93 -238 -9 -32 -16 -39 -44 -44 -34 -6 -43 -17
-24 -29 11 -7 79 6 160 30 l45 13 -47 1 c-27 1 -48 4 -48 9 0 14 60 168 97
250 32 69 43 83 66 89 34 7 46 23 17 23 -12 0 -29 4 -38 9 -11 6 -25 5 -37 -2z"/>
<path d="M2852 109 c-13 -22 -44 -55 -69 -72 l-45 -32 67 -3 c37 -2 69 -1 72
1 2 3 3 37 1 76 l-3 70 -23 -40z"/>
<path d="M1 73 l-1 -73 72 0 71 0 -40 29 c-37 27 -62 53 -90 97 -10 16 -12 6
-12 -53z"/>
</g>
</svg>
